<svg width="18" height="21" viewBox="0 0 18 21" fill="none" xmlns="http://www.w3.org/2000/svg">
<path opacity="0.5" fill-rule="evenodd" clip-rule="evenodd" d="M8.55446 20.5001C3.84686 20.5001 0.0193534 16.6532 1.63649e-05 11.9457C-0.00790398 10.0175 2.86181 10.0175 2.8515 11.9457C2.83455 15.1122 5.38791 17.6486 8.55446 17.6486C11.721 17.6486 14.2574 15.1122 14.2574 11.9457C14.2574 8.77914 11.7206 6.24201 8.55446 6.24272C8.51579 6.24273 8.43889 6.24899 8.43889 6.24899L8.84963 6.66042C9.7815 7.56747 9.11219 9.1464 7.81235 9.10743C7.44243 9.09604 7.09143 8.94126 6.83354 8.67581L3.98137 5.82642C3.4236 5.2692 3.42367 4.36554 3.98137 3.80825L6.83354 0.958158C8.206 -0.413292 10.2216 1.60229 8.84963 2.97424L8.42915 3.39473C8.42915 3.39473 8.51259 3.39127 8.55446 3.39123C13.2624 3.39016 17.1089 7.23806 17.1089 11.9457C17.1089 16.6533 13.2621 20.5001 8.55446 20.5001Z" fill="#73808D"/>
</svg>
