<svg width="20" height="20" viewBox="0 0 20 20" fill="none" xmlns="http://www.w3.org/2000/svg">
<circle cx="10" cy="10" r="9.25" fill="#2ECC71" stroke="#2ECC71" stroke-width="1.5"/>
<path d="M8.54297 13.749C8.54297 14.3228 8.2275 14.6943 7.75666 14.6943C7.28583 14.6943 7 14.3228 7 13.749L7 5.63967C7 5.06591 7.28583 4.69434 7.75667 4.69434C8.2275 4.69434 8.54297 5.06591 8.54297 5.63967L8.54297 13.749Z" fill="white"/>
<path d="M13 13.749C13 14.3228 12.6845 14.6943 12.2137 14.6943C11.7429 14.6943 11.457 14.3228 11.457 13.749L11.457 5.63967C11.457 5.06591 11.7429 4.69434 12.2137 4.69434C12.6845 4.69434 13 5.06591 13 5.63967L13 13.749Z" fill="white"/>
</svg>
