<svg width="20" height="20" viewBox="0 0 20 20" fill="none" xmlns="http://www.w3.org/2000/svg">
<circle cx="10" cy="10" r="9.25" fill="#E67E22" stroke="#E67E22" stroke-width="1.5"/>
<path d="M10.9833 4.88314C11.1276 5.10255 11.0692 5.39903 10.8527 5.5453L10.8317 5.5595C13.1587 5.73221 15 7.70653 15 10.1088C15 11.2566 14.5796 12.3068 13.8868 13.1094C13.3471 13.735 12.4306 12.8993 13 12.2021C13.4645 11.633 13.7439 10.9034 13.7439 10.1088C13.7439 8.42815 12.4937 7.03816 10.8866 6.8438C11.0747 6.99701 11.1197 7.27308 10.9833 7.48043C10.839 7.69985 10.5465 7.75908 10.3301 7.61279L8.93146 6.66733C8.76642 6.55576 8.66789 6.37422 8.66789 6.18174C8.66789 5.98925 8.76645 5.80775 8.93146 5.69624L10.3301 4.75078C10.5465 4.60452 10.839 4.66376 10.9833 4.88314Z" fill="white"/>
<path d="M9.01673 15.1164C8.87235 14.897 8.93082 14.6005 9.14726 14.4542L9.16827 14.44C6.84127 14.2673 5 12.293 5 9.89072C5.00001 8.74291 5.42037 7.69275 6.11322 6.89013C6.65293 6.26455 7.56939 7.10023 7 7.79741C6.5355 8.36648 6.25605 9.09613 6.25605 9.89072C6.25605 11.5714 7.50627 12.9613 9.11338 13.1557C8.92526 13.0025 8.88033 12.7264 9.01673 12.5191C9.16105 12.2997 9.45351 12.2404 9.66992 12.3867L11.0685 13.3322C11.2336 13.4438 11.3321 13.6253 11.3321 13.8178C11.3321 14.0103 11.2335 14.1918 11.0685 14.3033L9.66993 15.2487C9.45348 15.395 9.16105 15.3358 9.01673 15.1164Z" fill="white"/>
</svg>
