<svg width="20" height="20" viewBox="0 0 20 20" fill="none" xmlns="http://www.w3.org/2000/svg">
<circle cx="10" cy="10" r="9.25" fill="#E74C3C" stroke="#E74C3C" stroke-width="1.5"/>
<path d="M11.7186 11.7611C11.4283 11.5591 11.0359 11.6409 10.8423 11.9437L10.7695 12.0234V5.94534C10.7695 5.37158 10.4541 5 9.98323 5C9.51239 5 9.22656 5.37158 9.22656 5.94534V12.0234L9.12412 11.8962C8.92136 11.633 8.5558 11.5702 8.28139 11.7611C7.99102 11.9629 7.91263 12.3721 8.10624 12.6748L9.35745 14.6313C9.5051 14.8622 9.74534 15 10.0001 15C10.2548 15 10.495 14.8621 10.6426 14.6313L11.8938 12.6748C12.0874 12.372 12.009 11.9629 11.7186 11.7611Z" fill="white"/>
</svg>
