<svg width="17" height="17" viewBox="0 0 17 17" fill="none" xmlns="http://www.w3.org/2000/svg">
<circle cx="8.5" cy="8.5" r="7.75" stroke="#B9BFC6" stroke-width="1.5"/>
<path d="M7.73859 10.4519C7.74681 9.97176 7.8023 9.59247 7.90506 9.31406C8.00781 9.03564 8.21743 8.72697 8.53391 8.38803L9.34155 7.57095C9.68681 7.18763 9.85943 6.77606 9.85943 6.33625C9.85943 5.91258 9.7464 5.58171 9.52035 5.34364C9.29429 5.10155 8.96547 4.9805 8.53391 4.9805C8.11467 4.9805 7.77764 5.08944 7.52281 5.30733C7.26798 5.52522 7.14057 5.81775 7.14057 6.18494H6C6.00822 5.53127 6.24455 5.00471 6.709 4.60525C7.17756 4.20175 7.78586 4 8.53391 4C9.31073 4 9.91492 4.20578 10.3465 4.61735C10.7822 5.02488 11 5.58574 11 6.29993C11 7.00605 10.6671 7.70209 10.0012 8.38803L9.32922 9.0417C9.02918 9.36853 8.87916 9.8386 8.87916 10.4519H7.73859ZM7.68927 12.3705C7.68927 12.189 7.74476 12.0377 7.85573 11.9166C7.97082 11.7915 8.13933 11.729 8.36128 11.729C8.58323 11.729 8.75175 11.7915 8.86683 11.9166C8.98192 12.0377 9.03946 12.189 9.03946 12.3705C9.03946 12.5521 8.98192 12.7034 8.86683 12.8245C8.75175 12.9415 8.58323 13 8.36128 13C8.13933 13 7.97082 12.9415 7.85573 12.8245C7.74476 12.7034 7.68927 12.5521 7.68927 12.3705Z" fill="#B9BFC6"/>
</svg>
