<svg width="9" height="11" viewBox="0 0 9 11" fill="none" xmlns="http://www.w3.org/2000/svg">
<path d="M4.98327 0.712609C5.12765 0.932023 5.06918 1.2285 4.85274 1.37477L4.83173 1.38896C7.15873 1.56168 9 3.536 9 5.93826C8.99997 8.45362 6.98129 10.5 4.49998 10.5C2.01868 10.5 -8.94503e-08 8.45362 -1.994e-07 5.93826C-2.14769e-07 5.58665 0.28116 5.30163 0.628011 5.30163C0.974862 5.30163 1.25602 5.58665 1.25602 5.93826C1.25605 7.75154 2.71128 9.22674 4.49998 9.22674C6.28869 9.22674 7.74395 7.75154 7.74395 5.93826C7.74395 4.25762 6.49373 2.86763 4.88662 2.67327C5.07474 2.82648 5.11967 3.10255 4.98327 3.3099C4.83895 3.52931 4.54649 3.58855 4.33007 3.44226L2.93146 2.4968C2.76642 2.38523 2.66789 2.20369 2.66789 2.01121C2.66789 1.81872 2.76645 1.63722 2.93146 1.52571L4.33007 0.580254C4.54652 0.433988 4.83895 0.493226 4.98327 0.712609Z" fill="#303042"/>
</svg>
