<svg width="13" height="14" viewBox="0 0 13 14" fill="none" xmlns="http://www.w3.org/2000/svg">
<path d="M7.19806 0.297651C7.40661 0.604831 7.32215 1.0199 7.00951 1.22467L6.97917 1.24455C10.3404 1.48635 13 4.2504 13 7.61356C13 11.1351 10.0841 14 6.49998 14C2.91587 14 8.28444e-07 11.1351 6.74514e-07 7.61356C6.52997e-07 7.12131 0.406122 6.72228 0.907128 6.72228C1.40813 6.72228 1.81426 7.12131 1.81426 7.61356C1.8143 10.1522 3.9163 12.2174 6.49998 12.2174C9.08366 12.2174 11.1857 10.1522 11.1857 7.61356C11.1857 5.26067 9.37983 3.31469 7.05845 3.04258C7.33018 3.25706 7.39508 3.64357 7.19806 3.93386C6.9896 4.24104 6.56715 4.32397 6.25455 4.11916L4.23433 2.79551C3.99594 2.63932 3.85361 2.38517 3.85361 2.11569C3.85361 1.84621 3.99599 1.5921 4.23433 1.436L6.25455 0.112354C6.56719 -0.0924184 6.9896 -0.00948498 7.19806 0.297651Z" fill="black" fill-opacity="0.38"/>
</svg>
