<svg width="20" height="20" viewBox="0 0 20 20" fill="none" xmlns="http://www.w3.org/2000/svg">
<circle cx="10" cy="10" r="9.25" fill="#2ECC71" stroke="#2ECC71" stroke-width="1.5"/>
<path d="M11.7186 8.23894C11.4283 8.44091 11.0359 8.35912 10.8423 8.05634L10.7695 7.97656V14.0547C10.7695 14.6284 10.4541 15 9.98323 15C9.51239 15 9.22656 14.6284 9.22656 14.0547V7.97656L9.12412 8.10382C8.92136 8.36698 8.5558 8.42976 8.28139 8.23894C7.99102 8.03706 7.91263 7.62794 8.10624 7.3252L9.35745 5.36871C9.5051 5.13784 9.74534 5 10.0001 5C10.2548 5 10.495 5.13788 10.6426 5.36871L11.8938 7.3252C12.0874 7.62798 12.009 8.03706 11.7186 8.23894Z" fill="white"/>
</svg>
